<svg width="1769" height="312" viewBox="0 0 1769 312" fill="none" xmlns="http://www.w3.org/2000/svg">
<path d="M0.823863 -19.6364H87.2955L178.625 203.182H182.511L273.841 -19.6364H360.312V312H292.301V96.1449H289.548L203.724 310.381H157.412L71.5881 95.3352H68.8352V312H0.823863V-19.6364ZM418.082 312V-19.6364H641.548V38.1733H488.198V117.196H630.05V175.006H488.198V254.19H642.195V312H418.082ZM684.662 38.1733V-19.6364H957.031V38.1733H855.5V312H786.193V38.1733H684.662ZM1001.89 312V-19.6364H1225.35V38.1733H1072V117.196H1213.86V175.006H1072V254.19H1226V312H1001.89ZM1281.1 -19.6364H1367.57L1458.9 203.182H1462.78L1554.11 -19.6364H1640.59V312H1572.57V96.1449H1569.82L1484 310.381H1437.69L1351.86 95.3352H1349.11V312H1281.1V-19.6364ZM1768.47 -19.6364V312H1698.36V-19.6364H1768.47Z" fill="white"/>
</svg>
