<svg width="2086" height="398" viewBox="0 0 2086 398" fill="none" xmlns="http://www.w3.org/2000/svg">
<mask id="path-1-outside-1_1532_15059" maskUnits="userSpaceOnUse" x="0" y="0" width="2086" height="398" fill="black">
<rect fill="white" width="2086" height="398"/>
<path d="M3.88068 4.18181H105.523L212.875 266.091H217.443L324.795 4.18181H426.438V394H346.494V140.276H343.259L242.378 392.097H187.94L87.0597 139.324H83.8239V394H3.88068V4.18181ZM494.342 394V4.18181H757.012V72.1335H576.759V165.02H743.498V232.972H576.759V326.048H757.773V394H494.342ZM807.69 72.1335V4.18181H1127.84V72.1335H1008.5V394H927.034V72.1335H807.69ZM1180.57 394V4.18181H1443.24V72.1335H1262.99V165.02H1429.72V232.972H1262.99V326.048H1444V394H1180.57ZM1508.76 4.18181H1610.41L1717.76 266.091H1722.33L1829.68 4.18181H1931.32V394H1851.38V140.276H1848.14L1747.26 392.097H1692.82L1591.94 139.324H1588.71V394H1508.76V4.18181ZM2081.64 4.18181V394H1999.22V4.18181H2081.64Z"/>
</mask>
<path d="M3.88068 4.18181V0.407737H0.106612V4.18181H3.88068ZM105.523 4.18181L109.015 2.75045L108.055 0.407737H105.523V4.18181ZM212.875 266.091L209.383 267.522L210.343 269.865H212.875V266.091ZM217.443 266.091V269.865H219.975L220.935 267.522L217.443 266.091ZM324.795 4.18181V0.407737H322.264L321.303 2.75045L324.795 4.18181ZM426.438 4.18181H430.212V0.407737H426.438V4.18181ZM426.438 394V397.774H430.212V394H426.438ZM346.494 394H342.72V397.774H346.494V394ZM346.494 140.276H350.268V136.501H346.494V140.276ZM343.259 140.276V136.501H340.705L339.755 138.872L343.259 140.276ZM242.378 392.097V395.871H244.932L245.881 393.5L242.378 392.097ZM187.94 392.097L184.435 393.496L185.383 395.871H187.94V392.097ZM87.0597 139.324L90.5649 137.925L89.617 135.55H87.0597V139.324ZM83.8239 139.324V135.55H80.0498V139.324H83.8239ZM83.8239 394V397.774H87.5979V394H83.8239ZM3.88068 394H0.106612V397.774H3.88068V394ZM3.88068 4.18181V7.95588H105.523V4.18181V0.407737H3.88068V4.18181ZM105.523 4.18181L102.031 5.61316L209.383 267.522L212.875 266.091L216.367 264.66L109.015 2.75045L105.523 4.18181ZM212.875 266.091V269.865H217.443V266.091V262.317H212.875V266.091ZM217.443 266.091L220.935 267.522L328.288 5.61316L324.795 4.18181L321.303 2.75045L213.951 264.66L217.443 266.091ZM324.795 4.18181V7.95588H426.438V4.18181V0.407737H324.795V4.18181ZM426.438 4.18181H422.663V394H426.438H430.212V4.18181H426.438ZM426.438 394V390.226H346.494V394V397.774H426.438V394ZM346.494 394H350.268V140.276H346.494H342.72V394H346.494ZM346.494 140.276V136.501H343.259V140.276V144.05H346.494V140.276ZM343.259 140.276L339.755 138.872L238.874 390.693L242.378 392.097L245.881 393.5L346.762 141.679L343.259 140.276ZM242.378 392.097V388.323H187.94V392.097V395.871H242.378V392.097ZM187.94 392.097L191.446 390.698L90.5649 137.925L87.0597 139.324L83.5544 140.723L184.435 393.496L187.94 392.097ZM87.0597 139.324V135.55H83.8239V139.324V143.098H87.0597V139.324ZM83.8239 139.324H80.0498V394H83.8239H87.5979V139.324H83.8239ZM83.8239 394V390.226H3.88068V394V397.774H83.8239V394ZM3.88068 394H7.65475V4.18181H3.88068H0.106612V394H3.88068ZM494.342 394H490.568V397.774H494.342V394ZM494.342 4.18181V0.407737H490.568V4.18181H494.342ZM757.012 4.18181H760.786V0.407737H757.012V4.18181ZM757.012 72.1335V75.9076H760.786V72.1335H757.012ZM576.759 72.1335V68.3594H572.985V72.1335H576.759ZM576.759 165.02H572.985V168.794H576.759V165.02ZM743.498 165.02H747.272V161.246H743.498V165.02ZM743.498 232.972V236.746H747.272V232.972H743.498ZM576.759 232.972V229.198H572.985V232.972H576.759ZM576.759 326.048H572.985V329.822H576.759V326.048ZM757.773 326.048H761.548V322.274H757.773V326.048ZM757.773 394V397.774H761.548V394H757.773ZM494.342 394H498.116V4.18181H494.342H490.568V394H494.342ZM494.342 4.18181V7.95588H757.012V4.18181V0.407737H494.342V4.18181ZM757.012 4.18181H753.238V72.1335H757.012H760.786V4.18181H757.012ZM757.012 72.1335V68.3594H576.759V72.1335V75.9076H757.012V72.1335ZM576.759 72.1335H572.985V165.02H576.759H580.533V72.1335H576.759ZM576.759 165.02V168.794H743.498V165.02V161.246H576.759V165.02ZM743.498 165.02H739.724V232.972H743.498H747.272V165.02H743.498ZM743.498 232.972V229.198H576.759V232.972V236.746H743.498V232.972ZM576.759 232.972H572.985V326.048H576.759H580.533V232.972H576.759ZM576.759 326.048V329.822H757.773V326.048V322.274H576.759V326.048ZM757.773 326.048H753.999V394H757.773H761.548V326.048H757.773ZM757.773 394V390.226H494.342V394V397.774H757.773V394ZM807.69 72.1335H803.916V75.9076H807.69V72.1335ZM807.69 4.18181V0.407737H803.916V4.18181H807.69ZM1127.84 4.18181H1131.62V0.407737H1127.84V4.18181ZM1127.84 72.1335V75.9076H1131.62V72.1335H1127.84ZM1008.5 72.1335V68.3594H1004.73V72.1335H1008.5ZM1008.5 394V397.774H1012.27V394H1008.5ZM927.034 394H923.26V397.774H927.034V394ZM927.034 72.1335H930.808V68.3594H927.034V72.1335ZM807.69 72.1335H811.464V4.18181H807.69H803.916V72.1335H807.69ZM807.69 4.18181V7.95588H1127.84V4.18181V0.407737H807.69V4.18181ZM1127.84 4.18181H1124.07V72.1335H1127.84H1131.62V4.18181H1127.84ZM1127.84 72.1335V68.3594H1008.5V72.1335V75.9076H1127.84V72.1335ZM1008.5 72.1335H1004.73V394H1008.5H1012.27V72.1335H1008.5ZM1008.5 394V390.226H927.034V394V397.774H1008.5V394ZM927.034 394H930.808V72.1335H927.034H923.26V394H927.034ZM927.034 72.1335V68.3594H807.69V72.1335V75.9076H927.034V72.1335ZM1180.57 394H1176.79V397.774H1180.57V394ZM1180.57 4.18181V0.407737H1176.79V4.18181H1180.57ZM1443.24 4.18181H1447.01V0.407737H1443.24V4.18181ZM1443.24 72.1335V75.9076H1447.01V72.1335H1443.24ZM1262.99 72.1335V68.3594H1259.21V72.1335H1262.99ZM1262.99 165.02H1259.21V168.794H1262.99V165.02ZM1429.72 165.02H1433.5V161.246H1429.72V165.02ZM1429.72 232.972V236.746H1433.5V232.972H1429.72ZM1262.99 232.972V229.198H1259.21V232.972H1262.99ZM1262.99 326.048H1259.21V329.822H1262.99V326.048ZM1444 326.048H1447.77V322.274H1444V326.048ZM1444 394V397.774H1447.77V394H1444ZM1180.57 394H1184.34V4.18181H1180.57H1176.79V394H1180.57ZM1180.57 4.18181V7.95588H1443.24V4.18181V0.407737H1180.57V4.18181ZM1443.24 4.18181H1439.46V72.1335H1443.24H1447.01V4.18181H1443.24ZM1443.24 72.1335V68.3594H1262.99V72.1335V75.9076H1443.24V72.1335ZM1262.99 72.1335H1259.21V165.02H1262.99H1266.76V72.1335H1262.99ZM1262.99 165.02V168.794H1429.72V165.02V161.246H1262.99V165.02ZM1429.72 165.02H1425.95V232.972H1429.72H1433.5V165.02H1429.72ZM1429.72 232.972V229.198H1262.99V232.972V236.746H1429.72V232.972ZM1262.99 232.972H1259.21V326.048H1262.99H1266.76V232.972H1262.99ZM1262.99 326.048V329.822H1444V326.048V322.274H1262.99V326.048ZM1444 326.048H1440.23V394H1444H1447.77V326.048H1444ZM1444 394V390.226H1180.57V394V397.774H1444V394ZM1508.76 4.18181V0.407737H1504.99V4.18181H1508.76ZM1610.41 4.18181L1613.9 2.75045L1612.94 0.407737H1610.41V4.18181ZM1717.76 266.091L1714.27 267.522L1715.23 269.865H1717.76V266.091ZM1722.33 266.091V269.865H1724.86L1725.82 267.522L1722.33 266.091ZM1829.68 4.18181V0.407737H1827.15L1826.19 2.75045L1829.68 4.18181ZM1931.32 4.18181H1935.09V0.407737H1931.32V4.18181ZM1931.32 394V397.774H1935.09V394H1931.32ZM1851.38 394H1847.6V397.774H1851.38V394ZM1851.38 140.276H1855.15V136.501H1851.38V140.276ZM1848.14 140.276V136.501H1845.59L1844.64 138.872L1848.14 140.276ZM1747.26 392.097V395.871H1749.81L1750.76 393.5L1747.26 392.097ZM1692.82 392.097L1689.32 393.496L1690.27 395.871H1692.82V392.097ZM1591.94 139.324L1595.45 137.925L1594.5 135.55H1591.94V139.324ZM1588.71 139.324V135.55H1584.93V139.324H1588.71ZM1588.71 394V397.774H1592.48V394H1588.71ZM1508.76 394H1504.99V397.774H1508.76V394ZM1508.76 4.18181V7.95588H1610.41V4.18181V0.407737H1508.76V4.18181ZM1610.41 4.18181L1606.91 5.61316L1714.27 267.522L1717.76 266.091L1721.25 264.66L1613.9 2.75045L1610.41 4.18181ZM1717.76 266.091V269.865H1722.33V266.091V262.317H1717.76V266.091ZM1722.33 266.091L1725.82 267.522L1833.17 5.61316L1829.68 4.18181L1826.19 2.75045L1718.83 264.66L1722.33 266.091ZM1829.68 4.18181V7.95588H1931.32V4.18181V0.407737H1829.68V4.18181ZM1931.32 4.18181H1927.55V394H1931.32H1935.09V4.18181H1931.32ZM1931.32 394V390.226H1851.38V394V397.774H1931.32V394ZM1851.38 394H1855.15V140.276H1851.38H1847.6V394H1851.38ZM1851.38 140.276V136.501H1848.14V140.276V144.05H1851.38V140.276ZM1848.14 140.276L1844.64 138.872L1743.76 390.693L1747.26 392.097L1750.76 393.5L1851.64 141.679L1848.14 140.276ZM1747.26 392.097V388.323H1692.82V392.097V395.871H1747.26V392.097ZM1692.82 392.097L1696.33 390.698L1595.45 137.925L1591.94 139.324L1588.44 140.723L1689.32 393.496L1692.82 392.097ZM1591.94 139.324V135.55H1588.71V139.324V143.098H1591.94V139.324ZM1588.71 139.324H1584.93V394H1588.71H1592.48V139.324H1588.71ZM1588.71 394V390.226H1508.76V394V397.774H1588.71V394ZM1508.76 394H1512.54V4.18181H1508.76H1504.99V394H1508.76ZM2081.64 4.18181H2085.42V0.407737H2081.64V4.18181ZM2081.64 394V397.774H2085.42V394H2081.64ZM1999.22 394H1995.45V397.774H1999.22V394ZM1999.22 4.18181V0.407737H1995.45V4.18181H1999.22ZM2081.64 4.18181H2077.87V394H2081.64H2085.42V4.18181H2081.64ZM2081.64 394V390.226H1999.22V394V397.774H2081.64V394ZM1999.22 394H2003V4.18181H1999.22H1995.45V394H1999.22ZM1999.22 4.18181V7.95588H2081.64V4.18181V0.407737H1999.22V4.18181Z" fill="white" mask="url(#path-1-outside-1_1532_15059)"/>
</svg>
